{"title":"Shadowhunters S01E08 INTERNAL HDTV x264-KILLERS","uid":13719933,"size":296758444,"categoryP":"video","categoryS":"hd___tv_shows","magnet":"?xt=urn:btih:ecc1d460bb3246fc2fbd3724b84a581cc6194fff&amp;dn=Shadowhunters+S01E08+INTERNAL+HDTV+x264-KILLERS&amp;tr=udp%3A%2F%2Ftracker.leechers-paradise.org%3A6969&amp;tr=udp%3A%2F%2Fzer0day.ch%3A1337&amp;tr=udp%3A%2F%2Fopen.demonii.com%3A1337&amp;tr=udp%3A%2F%2Ftracker.coppersurfer.tk%3A6969&amp;tr=udp%3A%2F%2Fexodus.desync.com%3A6969","seeders":0,"leechers":0,"uploader":"scene_up","files":1,"time":1456933069,"description":"Video\r\nID : 2\r\nFormat : AVC\r\nFormat/Info : Advanced Video Codec\r\nFormat profile :   \r\nFormat settings, CABAC : Yes\r\nFormat settings, ReFrames : 5 frames\r\nCodec ID : avc1\r\nCodec ID/Info : Advanced Video Coding\r\nDuration : 41mn 52s\r\nSource duration : 41mn 52s\r\nBit rate : 804 Kbps\r\nMaximum bit rate : 3 672 Kbps\r\nWidth : 720 pixels\r\nHeight : 404 pixels\r\nDisplay aspect ratio : 16:9\r\nFrame rate mode : Constant\r\nFrame rate : 23.976 fps\r\nColor space : YUV\r\nChroma subsampling : 4:2:0\r\nBit depth : 8 bits\r\nScan type : Progressive\r\nBits/(Pixel*Frame) : 0.115\r\nStream size : 241 MiB (85%)\r\nSource stream size : 241 MiB (85%)\r\nWriting library : x264 core 148 r2665 a01e339\r\nEncoding settings : cabac=1 / ref=5 / deblock=1:0:0 / analyse=0x3:0x113 / me=umh / subme=8 / psy=1 / psy_rd=1.00:0.00 / mixed_ref=1 / me_range=16 / chroma_me=1 / trellis=1 / 8x8dct=1 / cqm=0 / deadzone=21,11 / fast_pskip=1 / chroma_qp_offset=-2 / threads=13 / lookahead_threads=2 / sliced_threads=0 / nr=0 / decimate=1 / interlaced=0 / bluray_compat=0 / constrained_intra=0 / bframes=3 / b_pyramid=2 / b_adapt=2 / b_bias=0 / direct=3 / weightb=1 / open_gop=0 / weightp=2 / keyint=250 / keyint_min=23 / scenecut=40 / intra_refresh=0 / rc_lookahead=50 / rc=crf / mbtree=1 / crf=19.0 / qcomp=0.60 / qpmin=0 / qpmax=69 / qpstep=4 / ip_ratio=1.40 / aq=1:1.00\r\nEncoded date : UTC 2016-03-02 14:04:18\r\nTagged date : UTC 2016-03-02 14:07:27\r\nMatrix coefficients : BT.709\r\n\r\nAudio\r\nID : 1\r\nFormat : AAC\r\nFormat/Info : Advanced Audio Codec\r\nFormat profile : LC\r\nCodec ID : 40\r\nDuration : 41mn 52s\r\nBit rate mode : Variable\r\nBit rate : 137 Kbps\r\nMaximum bit rate : 173 Kbps\r\nChannel(s) : 2 channels\r\nChannel positions : Front: L R\r\nSampling rate : 48.0 KHz\r\nCompression mode : Lossy\r\nStream size : 40.9 MiB (14%)\r\nEncoded date : UTC 2016-03-02 14:07:26\r\nTagged date : UTC 2016-03-02 14:07:27\r\n\r\n[url=http://extraimago.com/image/aNi6]","torrent":{"xt":"urn:btih:ecc1d460bb3246fc2fbd3724b84a581cc6194fff","amp;dn":"Shadowhunters+S01E08+INTERNAL+HDTV+x264-KILLERS","amp;tr":["udp%3A%2F%2Ftracker.leechers-paradise.org%3A6969","udp%3A%2F%2Fzer0day.ch%3A1337","udp%3A%2F%2Fopen.demonii.com%3A1337","udp%3A%2F%2Ftracker.coppersurfer.tk%3A6969","udp%3A%2F%2Fexodus.desync.com%3A6969"],"infoHash":"ecc1d460bb3246fc2fbd3724b84a581cc6194fff","infoHashBuffer":{"type":"Buffer","data":[236,193,212,96,187,50,70,252,47,189,55,36,184,74,88,28,198,25,79,255]},"announce":[],"urlList":[]}}